<svg xmlns="http://www.w3.org/2000/svg" class="icon icon-alarm" width="1024" height="1024" viewBox="0 0 1024 1024">
  <g fill="#ffffff" opacity=".125">
    <path class="path1" d="M512 128c-247.424 0-448 200.576-448 448s200.576 448 448 448 448-200.576 448-448-200.576-448-448-448zM512 936c-198.824 0-360-161.178-360-360 0-198.824 161.176-360 360-360 198.822 0 360 161.176 360 360 0 198.822-161.178 360-360 360zM934.784 287.174c16.042-28.052 25.216-60.542 25.216-95.174 0-106.040-85.96-192-192-192-61.818 0-116.802 29.222-151.92 74.596 131.884 27.236 245.206 105.198 318.704 212.578v0zM407.92 74.596c-35.116-45.374-90.102-74.596-151.92-74.596-106.040 0-192 85.96-192 192 0 34.632 9.174 67.122 25.216 95.174 73.5-107.38 186.822-185.342 318.704-212.578z"></path>
    <path class="path2" d="M512 576v-256h-64v320h256v-64z"></path>
  </g>
</svg>