<svg
  xmlns="http://www.w3.org/2000/svg"
  xmlns:xlink="http://www.w3.org/1999/xlink"
  version="1.1"
  width="1085.3"
  height="188"
  x="0"
  y="0"
  viewbox="0 0 1085.3 282"
  preserveAspectRatio="none"
  id="svg2"
  >
  <style>
    @keyframes wave {
      to { transform: translateX(-188px);}
    }
    @-webkit-keyframes wave {
      to { transform: translateX(-188px);}
    }
    #wave {
      -webkit-animation: wave .667s linear infinite;
      animation: wave .667s linear infinite;
    }
  </style>
  <path
    id="line"
    fill="none" opacity="0.25" stroke="#c69" stroke-width="3"
    d="M -38,94 l 1862,0" />
  <path
    id="wave"
    fill="none" stroke="#ffffff" stroke-width="6" stroke-opacity=".75"
    d="
    M  -38,94 C  -23,58    -6,38    11,38
    M   60,94 C   45,58    28,38    11,38
    M   60,94 C   75,130   92,150  109,150
    M  158,94 C  143,130  126,150  109,150
    M  158,94 C  173,58   190,38   207,38
    M  256,94 C  241,58   224,38   207,38
    M  256,94 C  271,130  288,150  305,150
    M  354,94 C  339,130  322,150  305,150
    M  354,94 C  369,58   386,38   403,38
    M  452,94 C  437,58   420,38   403,38
    M  452,94 C  467,130  484,150  501,150
    M  550,94 C  535,130  518,150  501,150
    M  550,94 C  565,58   582,38   599,38
    M  648,94 C  633,58   616,38   599,38
    M  648,94 C  663,130  680,150  697,150
    M  746,94 C  731,130  714,150  697,150
    M  746,94 C  761,58   778,38   795,38
    M  844,94 C  829,58   812,38   795,38
    M  844,94 C  859,130  876,150  893,150
    M  942,94 C  927,130  910,150  893,150
    M  942,94 C  957,58   974,38   991,38
    M 1040,94 C 1025,58  1008,38   991,38
    M 1040,94 C 1055,130 1072,150 1089,150
    M 1138,94 C 1123,130 1106,150 1089,150
    M 1138,94 C 1153,58  1170,38  1187,38
    M 1236,94 C 1221,58  1204,38  1187,38
    M 1236,94 C 1251,130 1268,150 1285,150
    M 1334,94 C 1319,130 1302,150 1285,150
    M 1334,94 C 1349,58  1366,38  1383,38
    M 1432,94 C 1417,58  1400,38  1383,38
    M 1432,94 C 1447,130 1464,150 1481,150
    M 1530,94 C 1515,130 1498,150 1481,150
    M 1530,94 C 1545,58  1562,38  1579,38
    M 1628,94 C 1613,58  1596,38  1579,38
    M 1628,94 C 1643,130 1660,150 1677,150
    M 1726,94 C 1711,130 1694,150 1677,150
    M 1726,94 C 1741,58  1758,38  1775,38
    M 1824,94 C 1809,58  1792,38  1775,38
    " />
</svg>